<svg width="212" height="132" viewBox="0 0 212 132" fill="none" xmlns="http://www.w3.org/2000/svg">
<path d="M28.5 27L11.5 0C11.5 0 11.3107 0 28.5 0H93.5C114.487 0 131.5 17.0132 131.5 38V43C131.5 60.3444 119.88 74.9748 104 79.5307V80L130.5 123.5H100L75.5 81.5V81H58.5V117L33 132V81H28.5C12.0719 81 5.30406 70.5752 0 55.9801C7.22537 56 5.99999 55.9801 0 55.9801L93.5 56C100.68 56 106.5 50.1797 106.5 43V40C106.5 32.8203 100.68 27 93.5 27H40.5H28.5Z" fill="black"/>
<path d="M197.12 98H170.947C157.139 98 145.947 86.8071 145.947 73C145.947 59.1929 157.139 48 170.947 48H196.367L211.156 22H168.947C158.566 22 148.956 25.2949 141.103 30.896C141.656 33.5103 141.947 36.2212 141.947 39V47C141.947 61.8229 133.677 74.7143 121.5 81.3126C125.022 104.352 144.923 122 168.947 122H209.909L197.12 98Z" fill="black"/>
</svg>
