<svg width="48" height="48" viewBox="0 0 48 48" fill="none" xmlns="http://www.w3.org/2000/svg">
<g clip-path="url(#clip0_370_114)">
<circle cx="24" cy="24" r="23" fill="#F7F7F7" stroke="white" stroke-width="2"/>
<path d="M11 20.4095C11 17.1159 11 15.4691 11.641 14.2111C12.2048 13.1045 13.1045 12.2048 14.2111 11.641C15.4691 11 17.1159 11 20.4095 11H27.5905C30.8841 11 32.531 11 33.7889 11.641C34.8955 12.2048 35.7952 13.1045 36.359 14.2111C37 15.4691 37 17.1159 37 20.4095V27.5905C37 30.8841 37 32.531 36.359 33.7889C35.7952 34.8955 34.8955 35.7952 33.7889 36.359C32.531 37 30.8841 37 27.5905 37H20.4095C17.1159 37 15.4691 37 14.2111 36.359C13.1045 35.7952 12.2048 34.8955 11.641 33.7889C11 32.531 11 30.8841 11 27.5905V20.4095Z" fill="#00005B"/>
<path d="M16.5715 29.3817V17.6931C16.5715 17.6136 16.6041 17.5682 16.6801 17.5682C17.803 17.5682 18.9253 17.5 20.0485 17.5C21.8709 17.5 23.8443 18.1352 24.536 20.0786C24.699 20.5557 24.7859 21.0441 24.7859 21.5553C24.7859 22.5321 24.5686 23.3386 24.1339 23.9747C22.9199 25.7517 20.8156 25.7241 18.9293 25.7241V29.3703C18.9441 29.4783 18.8538 29.5294 18.7663 29.5294H16.7019C16.6149 29.5294 16.5715 29.484 16.5715 29.3817ZM18.9402 19.7605V23.5771C19.6881 23.633 20.4707 23.6391 21.1894 23.3954C21.9827 23.1621 22.4172 22.4622 22.4172 21.6234C22.4393 20.9087 22.0572 20.2229 21.4067 19.965C20.6967 19.664 19.7066 19.646 18.9402 19.7605Z" fill="#9999FF"/>
<path d="M26.2587 20.4825H28.1657C28.2708 20.4835 28.3652 20.5594 28.393 20.6655C28.5327 20.9898 28.55 21.381 28.5505 21.7312C28.8775 21.3331 29.2718 21.0015 29.7138 20.7527C30.1878 20.4724 30.7252 20.3302 31.2697 20.3413C31.3601 20.3277 31.4401 20.4114 31.4272 20.5058V22.7187C31.4272 22.8042 31.3687 22.8468 31.2522 22.8468C30.4451 22.7885 29.1886 22.9879 28.6021 23.6515V29.4053C28.6021 29.515 28.5555 29.5699 28.4622 29.5699H26.4162C26.3158 29.5849 26.2271 29.4904 26.2413 29.387V23.1394C26.2413 22.3022 26.2587 21.4399 26.1364 20.6106C26.1175 20.5342 26.1873 20.4633 26.2587 20.4825Z" fill="#9999FF"/>
</g>
<defs>
<clipPath id="clip0_370_114">
<rect width="48" height="48" fill="white"/>
</clipPath>
</defs>
</svg>
