<svg width="48" height="48" viewBox="0 0 48 48" fill="none" xmlns="http://www.w3.org/2000/svg">
<g clip-path="url(#clip0_370_116)">
<circle cx="24" cy="24" r="23" fill="#F7F7F7" stroke="white" stroke-width="2"/>
<path fill-rule="evenodd" clip-rule="evenodd" d="M35.4067 17.7626C35.4626 18.1773 35.4938 18.6203 35.4938 19.0987C35.4938 21.384 35.2819 21.5128 30.5344 35.2364C34.3992 32.9823 36.9991 28.7951 36.9991 23.9996C36.9991 21.7389 36.4219 19.6137 35.4067 17.7626ZM24.2283 25.137L20.3272 36.4697C22.9596 37.2445 25.7493 37.1656 28.3167 36.2635C28.2816 36.2076 28.2504 36.1475 28.2244 36.0838L24.2283 25.137ZM32.7756 23.3432C32.7756 21.7365 32.1984 20.6233 31.7031 19.7576C31.0453 18.6864 30.4265 17.7807 30.4265 16.7095C30.4265 15.5149 31.3339 14.4022 32.6105 14.4022C32.6677 14.4022 32.7223 14.4098 32.7782 14.4124C30.4656 12.2935 27.3846 11 23.9996 11C19.4588 11 15.4628 13.3293 13.1384 16.8587C13.9665 16.8847 15.078 16.8954 17.44 16.7108C18.1407 16.6692 18.2226 17.6984 17.5232 17.7803C17.5232 17.7803 16.8186 17.8638 16.0347 17.9054L20.7692 31.9865L23.6135 23.4537L21.5881 17.9041C20.8888 17.8638 20.2258 17.7803 20.2258 17.7803C19.5251 17.7387 19.607 16.6679 20.3077 16.7095C22.9947 16.9162 24.37 16.9318 27.1962 16.7095C27.8968 16.6679 27.98 17.6971 27.2793 17.7803C27.2793 17.7803 26.5735 17.8638 25.7909 17.9041L30.4889 31.8786C32.344 25.6805 32.7756 24.6432 32.7756 23.3432ZM11 23.9996C11 29.1448 13.9899 33.5919 18.3266 35.6992L12.1258 18.709C11.4043 20.3261 11 22.1146 11 23.9996Z" fill="black"/>
</g>
<defs>
<clipPath id="clip0_370_116">
<rect width="48" height="48" fill="white"/>
</clipPath>
</defs>
</svg>
