<svg width="48" height="48" viewBox="0 0 48 48" fill="none" xmlns="http://www.w3.org/2000/svg">
<g clip-path="url(#clip0_370_110)">
<circle cx="24" cy="24" r="23" fill="#F7F7F7" stroke="white" stroke-width="2"/>
<path fill-rule="evenodd" clip-rule="evenodd" d="M23.6667 24C23.6667 21.6068 25.6068 19.6666 28 19.6666C30.3932 19.6666 32.3333 21.6068 32.3333 24C32.3333 26.3932 30.3932 28.3333 28 28.3333C25.6068 28.3333 23.6667 26.3932 23.6667 24Z" fill="#1ABCFE"/>
<path fill-rule="evenodd" clip-rule="evenodd" d="M15 32.6667C15 30.2735 16.9401 28.3334 19.3333 28.3334H23.6667V32.6667C23.6667 35.0599 21.7265 37 19.3333 37C16.9401 37 15 35.0599 15 32.6667Z" fill="#0ACF83"/>
<path fill-rule="evenodd" clip-rule="evenodd" d="M23.6667 11V19.6667H28C30.3932 19.6667 32.3333 17.7265 32.3333 15.3333C32.3333 12.9401 30.3932 11 28 11H23.6667Z" fill="#FF7262"/>
<path fill-rule="evenodd" clip-rule="evenodd" d="M15 15.3333C15 17.7265 16.9401 19.6667 19.3333 19.6667H23.6667V11H19.3333C16.9401 11 15 12.9401 15 15.3333Z" fill="#F24E1E"/>
<path fill-rule="evenodd" clip-rule="evenodd" d="M15 24C15 26.3932 16.9401 28.3333 19.3333 28.3333H23.6667V19.6666H19.3333C16.9401 19.6666 15 21.6068 15 24Z" fill="#A259FF"/>
</g>
<defs>
<clipPath id="clip0_370_110">
<rect width="48" height="48" fill="white"/>
</clipPath>
</defs>
</svg>
