<svg width="48" height="48" viewBox="0 0 48 48" fill="none" xmlns="http://www.w3.org/2000/svg">
<g clip-path="url(#clip0_370_112)">
<circle cx="24" cy="24" r="23" fill="#F7F7F7" stroke="white" stroke-width="2"/>
<path d="M11 20.4095C11 17.1159 11 15.4691 11.641 14.2111C12.2048 13.1045 13.1045 12.2048 14.2111 11.641C15.4691 11 17.1159 11 20.4095 11H27.5905C30.8841 11 32.531 11 33.7889 11.641C34.8955 12.2048 35.7952 13.1045 36.359 14.2111C37 15.4691 37 17.1159 37 20.4095V27.5905C37 30.8841 37 32.531 36.359 33.7889C35.7952 34.8955 34.8955 35.7952 33.7889 36.359C32.531 37 30.8841 37 27.5905 37H20.4095C17.1159 37 15.4691 37 14.2111 36.359C13.1045 35.7952 12.2048 34.8955 11.641 33.7889C11 32.531 11 30.8841 11 27.5905V20.4095Z" fill="#001E36"/>
<path d="M16.5714 30.0508V18.6175C16.5714 18.5397 16.6039 18.4953 16.6797 18.4953C17.7993 18.4953 18.9183 18.4286 20.038 18.4286C21.8552 18.4286 23.8226 19.0499 24.5123 20.9508C24.6748 21.4175 24.7614 21.8952 24.7614 22.3953C24.7614 23.3509 24.5448 24.1397 24.1114 24.7619C22.9009 26.5 20.8029 26.473 18.9223 26.473V30.0397C18.9369 30.1453 18.847 30.1953 18.7598 30.1953H16.7014C16.6147 30.1953 16.5714 30.1508 16.5714 30.0508ZM18.933 20.6397V24.373C19.6788 24.4276 20.4591 24.4336 21.1755 24.1953C21.9666 23.9671 22.3998 23.2824 22.3998 22.4619C22.4217 21.7628 22.0408 21.092 21.3923 20.8397C20.6844 20.5454 19.6972 20.5277 18.933 20.6397Z" fill="#31A8FF"/>
<path d="M31.5184 23.6355C31.1906 23.4627 30.8415 23.3363 30.4805 23.2598C30.0168 23.1507 28.1877 22.7685 28.187 23.7249C28.2032 24.2589 29.0508 24.5205 29.4253 24.673C30.7401 25.1244 32.2278 25.9312 32.1986 27.5532C32.2388 29.5723 30.2825 30.3795 28.6056 30.3796C27.7326 30.3887 26.8232 30.2535 26.0242 29.8787C25.9479 29.8383 25.8989 29.752 25.9021 29.664V27.732C25.8935 27.6546 25.9767 27.5869 26.0417 27.6426C26.8245 28.116 27.7523 28.3459 28.6579 28.3581C29.0577 28.3581 29.8499 28.3194 29.844 27.732C29.844 27.1684 28.8962 26.9092 28.5184 26.766C27.9707 26.5706 27.4514 26.2997 26.9748 25.961C26.3086 25.4859 25.8908 24.7241 25.9021 23.886C25.8982 21.9848 27.699 21.1314 29.3207 21.1311C30.0788 21.1248 30.893 21.1809 31.5987 21.4889C31.7002 21.5187 31.7212 21.6256 31.7208 21.7214V23.5282C31.7272 23.6404 31.6027 23.6785 31.5184 23.6355Z" fill="#31A8FF"/>
</g>
<defs>
<clipPath id="clip0_370_112">
<rect width="48" height="48" fill="white"/>
</clipPath>
</defs>
</svg>
