<svg width="48" height="48" viewBox="0 0 48 48" fill="none" xmlns="http://www.w3.org/2000/svg">
<g clip-path="url(#clip0_370_111)">
<circle cx="24" cy="24" r="23" fill="#F7F7F7" stroke="white" stroke-width="2"/>
<path d="M15.3044 15.5576C16.1087 16.2132 16.4134 16.1669 17.9319 16.0654L32.2473 15.2066C32.552 15.2066 32.2985 14.9019 32.1962 14.8507L29.8181 13.1324C29.3656 12.7765 28.7562 12.3752 27.592 12.4719L13.7339 13.4874C13.2261 13.5337 13.1246 13.788 13.3277 13.9912L15.3044 15.5576ZM16.1632 18.8968V33.9564C16.1632 34.7648 16.5653 35.0695 17.4753 35.0183L33.2085 34.1084C34.1184 34.0572 34.224 33.5031 34.224 32.8434V17.8853C34.224 17.2247 33.9697 16.8738 33.4116 16.9249L16.9724 17.8853C16.363 17.9364 16.164 18.2362 16.164 18.8927L16.1632 18.8968ZM31.6932 19.7003C31.7948 20.1577 31.6932 20.6102 31.2358 20.6655L30.4786 20.8182V31.9342C29.8181 32.2901 29.2136 32.4932 28.7099 32.4932C27.8975 32.4932 27.6943 32.2389 27.0891 31.4817L22.1298 23.6959V31.2282L23.6995 31.5841C23.6995 31.5841 23.6995 32.494 22.4345 32.494L18.9434 32.6971C18.8418 32.494 18.9434 31.9862 19.2992 31.8887L20.2092 31.6344V21.6778L18.9442 21.5762C18.8426 21.1188 19.0969 20.4632 19.803 20.4128L23.5476 20.1585L28.7099 28.0458V21.0676L27.3937 20.9149C27.2922 20.3608 27.6943 19.9546 28.2021 19.9075L31.6932 19.7003ZM12.5705 12.1217L26.9875 11.0598C28.7562 10.9071 29.2136 11.0086 30.3259 11.817L34.9301 15.0539C35.6873 15.6079 35.9416 15.7607 35.9416 16.366V34.1092C35.9416 35.2223 35.5353 35.8779 34.1217 35.9795L17.3729 36.991C16.3151 37.0422 15.8073 36.8894 15.2483 36.1826L11.8588 31.7815C11.2535 30.9731 11 30.3678 11 29.6618V13.8912C11 12.9813 11.4062 12.2241 12.5697 12.1225L12.5705 12.1217Z" fill="black"/>
</g>
<defs>
<clipPath id="clip0_370_111">
<rect width="48" height="48" fill="white"/>
</clipPath>
</defs>
</svg>
