<svg width="48" height="48" viewBox="0 0 48 48" fill="none" xmlns="http://www.w3.org/2000/svg">
<g clip-path="url(#clip0_370_113)">
<circle cx="24" cy="24" r="23" fill="#F7F7F7" stroke="white" stroke-width="2"/>
<path d="M11 20.4095C11 17.1159 11 15.4691 11.641 14.2111C12.2048 13.1045 13.1045 12.2048 14.2111 11.641C15.4691 11 17.1159 11 20.4095 11H27.5905C30.8841 11 32.531 11 33.7889 11.641C34.8955 12.2048 35.7952 13.1045 36.359 14.2111C37 15.4691 37 17.1159 37 20.4095V27.5905C37 30.8841 37 32.531 36.359 33.7889C35.7952 34.8955 34.8955 35.7952 33.7889 36.359C32.531 37 30.8841 37 27.5905 37H20.4095C17.1159 37 15.4691 37 14.2111 36.359C13.1045 35.7952 12.2048 34.8955 11.641 33.7889C11 32.531 11 30.8841 11 27.5905V20.4095Z" fill="#330000"/>
<path d="M23.5994 27.3395H19.5705L18.7507 29.9513C18.728 30.0483 18.6386 30.117 18.5414 30.1122H16.5007C16.3844 30.1122 16.3437 30.0466 16.3786 29.9154L19.867 19.6114C19.9019 19.5041 19.9368 19.3819 19.9716 19.2447C20.0173 19.006 20.0406 18.7635 20.0414 18.5203C20.0314 18.4484 20.0945 18.3849 20.1634 18.395H22.9367C23.018 18.395 23.0644 18.4248 23.0762 18.4844L27.0355 29.9333C27.0703 30.0527 27.0355 30.1123 26.9309 30.1122H24.6634C24.5839 30.1213 24.508 30.0668 24.489 29.987L23.5994 27.3395ZM20.1984 25.0854H22.9542C22.5014 23.5383 21.9904 22.0114 21.5763 20.4522C21.1294 22.0141 20.6419 23.5696 20.1984 25.0854Z" fill="#FF9A00"/>
<path d="M29.3899 20.2911C29.212 20.2984 29.0346 20.2671 28.8692 20.1994C28.704 20.1316 28.5545 20.0287 28.4306 19.8976C28.3071 19.7607 28.2111 19.6002 28.1482 19.4252C28.0853 19.2503 28.0568 19.0643 28.0643 18.8779C28.0579 18.6934 28.0896 18.5096 28.1572 18.3385C28.2249 18.1675 28.327 18.0129 28.4568 17.8851C28.5853 17.7585 28.737 17.6594 28.9032 17.5933C29.0693 17.5273 29.2466 17.4958 29.4247 17.5005C29.8434 17.5005 30.1718 17.6287 30.4102 17.8851C30.5305 18.0183 30.6241 18.1746 30.6854 18.345C30.7467 18.5153 30.7748 18.6965 30.7677 18.8779C30.775 19.0649 30.7456 19.2517 30.6812 19.4268C30.6168 19.6019 30.5187 19.762 30.3928 19.8976C30.2612 20.0306 30.1041 20.1343 29.9315 20.2021C29.7589 20.2697 29.5745 20.3001 29.3899 20.2911ZM28.1864 29.9332V21.3824C28.1864 21.275 28.2327 21.2213 28.3259 21.2213H30.4713C30.5642 21.2213 30.6107 21.275 30.6108 21.3824V29.9332C30.6108 30.0526 30.5643 30.1122 30.4713 30.1121H28.3434C28.2387 30.1121 28.1864 30.0525 28.1864 29.9332Z" fill="#FF9A00"/>
</g>
<defs>
<clipPath id="clip0_370_113">
<rect width="48" height="48" fill="white"/>
</clipPath>
</defs>
</svg>
