<svg width="48" height="48" viewBox="0 0 48 48" fill="none" xmlns="http://www.w3.org/2000/svg">
<g clip-path="url(#clip0_370_115)">
<circle cx="24" cy="24" r="23" fill="#F7F7F7" stroke="white" stroke-width="2"/>
<path d="M24 37C31.1797 37 37 31.1797 37 24C37 16.8203 31.1797 11 24 11C16.8203 11 11 16.8203 11 24C11 31.1797 16.8203 37 24 37Z" fill="#4353FF"/>
<path d="M27.8188 22.4562L26.6406 26.1693C26.6406 25.8849 25.8281 19.7262 25.8281 19.7262C23.9594 19.7262 22.9681 21.0506 22.4481 22.4562L21.01 26.1774C21.01 25.9093 20.8069 22.4887 20.8069 22.4887C20.7375 21.7482 20.399 21.0589 19.8554 20.5512C19.3119 20.0436 18.601 19.753 17.8575 19.7343L19.385 29.0618C21.335 29.0618 22.3913 27.7374 22.9356 26.3318L24.1544 23.1631C24.1544 23.2931 24.9669 29.0618 24.9669 29.0618C25.7643 29.0608 26.5406 28.8059 27.1834 28.334C27.8262 27.8622 28.302 27.1979 28.5419 26.4374L31.3044 19.7262C29.3544 19.7262 28.3306 21.0506 27.8106 22.4562H27.8188Z" fill="white"/>
</g>
<defs>
<clipPath id="clip0_370_115">
<rect width="48" height="48" fill="white"/>
</clipPath>
</defs>
</svg>
